<svg width="115" height="55" viewBox="0 0 115 55" fill="none" xmlns="http://www.w3.org/2000/svg">
<path d="M2.85355 20.3536L2.873 20.3341L2.8902 20.3126C6.56416 15.7272 13.9543 12.5056 23.6345 10.442C33.2863 8.38431 45.1036 7.5 57.5001 7.5C69.7688 7.5 81.6627 8.79164 91.4453 11.2395C101.232 13.6884 108.811 17.2714 112.591 21.7897C113.258 22.9234 113.502 24.4759 113.563 26.1538C113.601 27.2063 113.569 28.24 113.538 29.2208C113.519 29.8376 113.5 30.4335 113.5 31C113.5 34.143 112.003 37.1802 109.206 39.9891C106.407 42.8 102.332 45.3544 97.2561 47.5104C87.1071 51.8215 73.0515 54.5 57.5001 54.5C41.9486 54.5 27.8931 51.8215 17.744 47.5104C12.6686 45.3544 8.59337 42.8 5.79443 39.9891C2.99751 37.1802 1.50007 34.143 1.50007 31C1.50007 30.58 1.48877 30.0879 1.47635 29.5466C1.44746 28.288 1.41247 26.7638 1.4992 25.2637C1.56078 24.1986 1.68312 23.1756 1.90619 22.3061C2.13167 21.4272 2.44639 20.7607 2.85355 20.3536Z" fill="#D3B64F" stroke="black"/>
<path d="M113.5 24C113.5 27.143 112.003 30.1802 109.206 32.9891C106.407 35.8 102.332 38.3544 97.2561 40.5104C87.107 44.8215 73.0515 47.5 57.5 47.5C41.9485 47.5 27.893 44.8215 17.744 40.5104C12.6685 38.3544 8.59329 35.8 5.79436 32.9891C2.99744 30.1802 1.5 27.143 1.5 24C1.5 20.857 2.99744 17.8198 5.79436 15.0109C8.59329 12.2 12.6685 9.64559 17.744 7.48964C27.893 3.17854 41.9485 0.5 57.5 0.5C73.0515 0.5 87.107 3.17854 97.2561 7.48964C102.332 9.64559 106.407 12.2 109.206 15.0109C112.003 17.8198 113.5 20.857 113.5 24Z" fill="#F4D35D" stroke="black"/>
</svg>
